<?xml version="1.0" encoding="UTF-8"?>
<svg id="Layer_2" data-name="Layer 2" xmlns="http://www.w3.org/2000/svg" viewBox="0 0 463.14 510.24">
  <defs>
    <style>
      .cls-1 {
        fill: #fff;
      }

      .cls-2 {
        fill: #ff8732;
      }

      .cls-3 {
        fill: #d62300;
      }
    </style>
  </defs>
  <g id="_레이어_1" data-name="레이어 1">
    <rect class="cls-1" y="133.9" width="463.14" height="304.89"/>
    <g>
      <path class="cls-2" d="M428.21,482.19c-38.64,21.81-104.94,28.05-196.64,28.05s-158-6.24-196.64-28.05C11.74,469.13,0,451.32,0,438.55c0-7.27,3.87-11.43,12.48-11.43H450.65c8.62,0,12.48,4.16,12.48,11.43,0,12.77-11.73,30.57-34.93,43.63Zm22.44-338.38H12.48c-8.61,0-12.48-4.45-12.48-12.46C0,83.85,71.49,0,231.57,0s231.57,83.85,231.57,131.35c0,8.01-3.87,12.46-12.49,12.46Z"/>
      <path class="cls-3" d="M93.34,339.72c-1.34-2.08-1.48-3.42-1.48-4.01,0-1.63,.89-2.82,2.67-4.45,4.16-3.86,14.42-13.51,20.07-22.26,4.31-6.68,6.09-12.77,6.09-17.81,0-12.91-11.74-23.01-24.53-23.01-8.17,0-15.9,4.6-21.1,13.06-6.99,11.28-15.31,24.34-20.66,29.54-1.34,1.34-2.08,1.63-3.12,1.63-1.79,0-2.53-1.19-2.53-3.11v-14.84c0-14.54-8.62-26.27-24.23-26.27S.29,279.91,.29,294.46v91.42c0,14.54,8.47,26.27,24.23,26.27s24.23-11.72,24.23-26.27v-21.07c0-1.78,.74-3.11,2.53-3.11,2.38,0,2.97,2.37,3.57,3.56,3.42,8.16,13.37,25.52,22.59,35.76,6.25,6.83,13.97,11.13,22.15,11.13,13.82,0,25.42-12.03,25.42-24.93,0-8.01-3.42-13.95-9.96-21.07-8.33-9.07-18.14-20.94-21.71-26.43Z"/>
      <path class="cls-3" d="M278.69,259.72c23.34,0,38.05-14.84,38.05-36.51,0-13.8-8.33-23.3-24.97-23.3h-4.75c-8.77,0-15.61,4.16-15.61,13.51,0,8.31,7.28,12.32,12.78,12.32,2.82,0,4.61,.89,4.61,2.97,0,2.67-3.12,4.45-6.69,4.45-11.15,0-18.73-7.87-18.73-22.56,0-16.33,10.41-22.26,18.43-22.26,9.81,0,11.45,5.05,18.28,5.05,7.88,0,13.23-6.53,13.23-13.36,0-5.05-2.23-8.9-5.65-11.58-6.25-4.6-15.01-8.01-28.09-8.01-23.04,0-45.49,15.14-45.49,50.16,0,33.53,22.44,49.11,44.58,49.11Z"/>
      <path class="cls-3" d="M17.39,258.83h20.96c19.77,0,31.81-13.21,31.81-29.68,0-13.21-7.88-19.3-9.66-20.78-.74-.6-1.48-1.19-1.48-1.78,0-.74,.45-1.04,1.19-1.93,2.82-3.26,5.65-8.46,5.65-16.03,0-17.81-12.04-27.31-30.77-27.31H17.39c-11.74,0-17.39,6.83-17.39,16.03v65.45c0,9.21,5.65,16.03,17.39,16.03Zm8.77-71.98c0-1.93,1.19-3.42,3.72-3.42h1.93c6.39,0,8.33,4.45,8.33,8.31,0,3.56-1.93,8.61-8.33,8.61h-1.93c-2.53,0-3.72-1.48-3.72-3.42v-10.09Zm0,34.73c0-1.93,1.19-3.42,3.72-3.42h2.67c7.14,0,9.21,4.75,9.21,9.05,0,3.86-2.08,9.35-9.21,9.35h-2.67c-2.53,0-3.72-1.48-3.72-3.42v-11.57Z"/>
      <path class="cls-3" d="M405.47,259.57c9.52,0,14.72-7.13,14.72-16.03v-15.73c0-1.93,.89-2.82,2.38-2.82,1.79,0,2.38,1.04,2.67,2.82,1.34,7.57,4.9,17.81,8.92,23.01,5.06,6.68,9.81,8.76,14.56,8.76,7.73,0,14.42-6.08,14.42-13.66,0-5.05-2.08-8.76-4.75-12.17-5.06-6.38-8.17-10.54-10.11-15.73-.45-1.19-.15-2.23,1.19-3.26,4.61-3.56,9.96-11.43,9.96-23.89,0-18.85-15.61-29.54-34.49-29.54h-16.8c-11.74,0-17.39,6.83-17.39,16.03v66.19c0,8.9,5.2,16.02,14.71,16.02Zm13.08-70.19c0-1.93,1.19-3.42,3.72-3.42h2.08c6.24,0,8.17,4.45,8.17,8.31s-1.93,8.61-8.17,8.61h-2.08c-2.53,0-3.72-1.48-3.72-3.42v-10.09Z"/>
      <path class="cls-3" d="M161.12,268.18c-16.65,0-25.71,12.46-25.71,28.05v87.86c0,15.59,9.07,28.05,25.71,28.05s25.71-12.46,25.71-28.05v-87.86c0-15.58-9.06-28.05-25.71-28.05Z"/>
      <path class="cls-3" d="M425.39,325.32h-7.28c-13.08,0-23.19,6.08-23.19,19.44,0,12.17,11,17.96,19.17,17.96,4.01,0,6.84,1.19,6.84,4.3,0,3.86-4.75,6.38-9.81,6.38-16.8,0-28.24-11.43-28.24-32.65,0-23.6,15.61-32.21,27.64-32.21,14.72,0,17.09,7.42,27.35,7.42,11.89,0,19.92-9.64,19.92-19.44,0-7.27-3.27-12.91-8.47-16.77-9.07-6.68-22.74-11.58-42.06-11.58-34.63,0-68.37,21.81-68.37,72.57s33.74,71.24,67.04,71.24c34.93,0,57.07-21.52,57.07-52.98,0-19.88-12.47-33.68-37.6-33.68Z"/>
      <path class="cls-3" d="M369.21,258.83c8.33,0,14.87-4.9,14.87-13.8s-6.54-13.66-14.87-13.66h-13.38c-2.53,0-3.72-1.48-3.72-3.42v-2.82c0-1.93,1.19-3.42,3.72-3.42h10.26c7.14,0,12.79-4.3,12.79-11.87s-5.65-11.87-12.79-11.87h-10.26c-2.53,0-3.72-1.48-3.72-3.42v-2.37c0-1.93,1.19-3.42,3.72-3.42h13.38c8.33,0,14.87-4.9,14.87-13.8s-6.54-13.66-14.87-13.66h-28.09c-11.74,0-17.39,6.83-17.39,16.03v65.45c0,9.2,5.65,16.03,17.39,16.03h28.09v.02Z"/>
      <path class="cls-3" d="M113.85,259.57c24.08,0,36.86-14.4,36.86-32.5v-50.01c0-8.9-5.2-16.03-14.72-16.03s-14.71,7.13-14.71,16.03v48.38c0,3.56-2.08,7.72-7.43,7.72s-7.14-4.16-7.14-7.72v-48.38c0-8.9-5.35-16.03-14.87-16.03s-14.72,7.13-14.72,16.03v50.01c0,18.11,12.64,32.5,36.72,32.5Z"/>
      <path class="cls-3" d="M218.2,259.57c7.73,0,14.42-6.08,14.42-13.66,0-5.05-2.08-8.76-4.75-12.17-4.31-5.64-8.18-10.54-10.11-15.73-.45-1.19-.15-2.23,1.19-3.26,4.61-3.56,9.96-11.43,9.96-23.89,0-18.85-15.61-29.54-34.49-29.54h-16.8c-11.74,0-17.39,6.83-17.39,16.03v66.19c0,8.9,5.2,16.03,14.71,16.03s14.72-7.13,14.72-16.03v-15.73c0-1.93,.89-2.82,2.38-2.82,1.79,0,2.38,1.04,2.67,2.82,1.34,7.57,4.9,17.81,8.92,23.01,5.06,6.67,9.81,8.74,14.57,8.74Zm-24.38-56.69h-2.08c-2.53,0-3.72-1.48-3.72-3.42v-10.08c0-1.93,1.19-3.42,3.72-3.42h2.08c6.25,0,8.18,4.45,8.18,8.31s-1.93,8.6-8.18,8.6Z"/>
      <path class="cls-3" d="M303.66,268.18c-15.31,0-23.63,11.43-23.63,25.83v32.05c0,2.67-.89,3.86-2.53,3.86-1.19,0-2.08-.74-3.12-2.82l-20.66-40.07c-7.88-15.29-16.05-18.85-25.42-18.85-15.61,0-24.23,11.72-24.23,26.42v91.73c0,14.4,8.33,25.83,23.63,25.83s23.63-11.43,23.63-25.83v-32.05c0-2.67,.89-3.86,2.53-3.86,1.19,0,2.08,.74,3.12,2.82l20.66,40.07c7.88,15.29,16.35,18.85,25.42,18.85,15.61,0,24.23-11.72,24.23-26.42v-91.73c0-14.4-8.32-25.83-23.63-25.83Z"/>
    </g>
  </g>
</svg>