<?xml version="1.0" encoding="UTF-8"?>
<svg id="Layer_2" data-name="Layer 2" xmlns="http://www.w3.org/2000/svg" viewBox="0 0 20 10.99">
  <defs>
    <style>
      .cls-1 {
        fill: #555;
      }
    </style>
  </defs>
  <g id="Layer_2-2" data-name="Layer 2">
    <g id="Layer_1-2" data-name="Layer 1-2">
      <path class="cls-1" d="M0,7c.97,0,1.87-.46,2.47-1.21C4.35,3.43,7.03,1.5,10,1.5s5.69,1.93,7.55,4.29c.6,.76,1.49,1.21,2.45,1.21h0c0-.18-.05-.35-.14-.51C17.79,3.09,14.14,0,10,0S2.26,3.09,.14,6.48c-.1,.16-.14,.34-.14,.52H0ZM8.91,3.14c3.04-.8,5.75,1.9,4.94,4.94-.35,1.34-1.43,2.42-2.77,2.77-3.04,.8-5.75-1.9-4.94-4.94,.35-1.34,1.43-2.42,2.77-2.77Z"/>
    </g>
  </g>
</svg>