<?xml version="1.0" encoding="UTF-8"?>
<svg id="Layer_2" data-name="Layer 2" xmlns="http://www.w3.org/2000/svg" viewBox="0 0 1061.69 1061.67">
  <defs>
    <style>
      .cls-1 {
        fill: #fff;
      }

      .cls-2 {
        fill: #003764;
      }

      .cls-3 {
        fill: #e4032e;
      }
    </style>
  </defs>
  <g id="Layer_1-2" data-name="Layer 1">
    <g>
      <path class="cls-1" d="M1061.69,530.83c0,293.18-237.69,530.84-530.84,530.84S0,824,0,530.83,237.66,0,530.84,0c293.15,0,530.84,237.67,530.84,530.83Z"/>
      <g>
        <path class="cls-2" d="M780,493.83c-84.44-57.38-192.54-34.02-249.38,52.26-47.28,72.12-118.83,81.09-146.4,81.09-90.41,0-152.09-63.55-170.43-129.27,0,0-.9-3.33-1.13-4.08-7.21-27.47-9.03-40.52-9.03-69.67,0-157.08,161.29-332.07,393.41-332.07s373.88,181.02,409.05,281.65c-.7-1.89-1.28-3.58-1.85-5.35C936.78,171.59,750.19,30.14,530.39,30.14,254.02,30.14,29.84,254.21,29.84,530.82c0,247.17,178.27,458.73,425.61,458.73,197.17,0,329.73-110.54,390.45-262.97,33.39-83.4,9.81-181.33-65.9-232.75Z"/>
        <path class="cls-3" d="M1009.16,383.46c-29.33-98.17-166.3-291.37-412.11-291.37-232.11,0-393.41,174.98-393.41,332.07,0,29.15,1.82,42.2,9.03,69.67-3.02-12.03-4.56-24.01-4.56-35.72,0-163.64,163.81-277,332.22-277,228.04,0,412.85,184.82,412.85,412.76,0,178.68-102.85,333.45-252.22,407.74v.14c192.62-69.76,330.17-254.28,330.17-470.94,0-51.28-6.87-96.51-21.97-147.36Z"/>
      </g>
    </g>
  </g>
</svg>