<?xml version="1.0" encoding="UTF-8"?>
<svg id="Layer_2" data-name="Layer 2" xmlns="http://www.w3.org/2000/svg" viewBox="0 0 1285.48 191.64">
  <defs>
    <style>
      .cls-1 {
        fill: #ffe1cc;
      }
    </style>
  </defs>
  <g id="Layer_1-2" data-name="Layer 1">
    <g>
      <path class="cls-1" d="M22.77,1.32C12.27,4.82,2.77,15.42,.57,26.12c-4.3,20.6,16.3,41.2,36.9,36.9,15.5-3.2,27.5-19,26-33.9-1.1-10.5-9-21.3-19-26.2C38.37,.02,28.97-.68,22.77,1.32Z"/>
      <path class="cls-1" d="M150.77,1.32c-15.1,5-25.3,21.6-22.2,36.2,2.5,11.9,13.6,23,25.4,25.5,19.4,4.1,39.5-14.2,37.5-33.9-1.1-10.5-9-21.3-19-26.2-6.1-2.9-15.5-3.6-21.7-1.6Z"/>
      <path class="cls-1" d="M278.77,1.32c-10.5,3.5-20,14.1-22.2,24.8-4.3,20.6,16.3,41.2,36.9,36.9,15.5-3.2,27.5-19,26-33.9-1.1-10.5-9-21.3-19-26.2-6.1-2.9-15.5-3.6-21.7-1.6Z"/>
      <path class="cls-1" d="M406.77,1.32c-10.5,3.5-20,14.1-22.2,24.8-4.3,20.6,16.3,41.2,36.9,36.9,15.5-3.2,27.5-19,26-33.9-1.1-10.5-9-21.3-19-26.2-6.1-2.9-15.5-3.6-21.7-1.6Z"/>
      <path class="cls-1" d="M534.77,1.32c-10.5,3.5-20,14.1-22.2,24.8-4.3,20.6,16.3,41.2,36.9,36.9,15.5-3.2,27.5-19,26-33.9-1.1-10.5-9-21.3-19-26.2-6.1-2.9-15.5-3.6-21.7-1.6Z"/>
      <path class="cls-1" d="M662.77,1.32c-10.5,3.5-20,14.1-22.2,24.8-4.3,20.6,16.3,41.2,36.9,36.9,15.5-3.2,27.5-19,26-33.9-1.1-10.5-9-21.3-19-26.2-6.1-2.9-15.5-3.6-21.7-1.6Z"/>
      <path class="cls-1" d="M790.77,1.32c-10.5,3.5-20,14.1-22.2,24.8-4.3,20.6,16.3,41.2,36.9,36.9,15.5-3.2,27.5-19,26-33.9-1.1-10.5-9-21.3-19-26.2-6.1-2.9-15.5-3.6-21.7-1.6Z"/>
      <path class="cls-1" d="M918.77,1.32c-10.5,3.5-20,14.1-22.2,24.8-4.3,20.6,16.3,41.2,36.9,36.9,15.5-3.2,27.5-19,26-33.9-1.1-10.5-9-21.3-19-26.2-6.1-2.9-15.5-3.6-21.7-1.6Z"/>
      <path class="cls-1" d="M1046.77,1.32c-10.5,3.5-20,14.1-22.2,24.8-2.5,11.7,3.2,24.4,14.2,31.9,10.7,7.4,22.9,7.5,33.7,.3,17.7-11.8,20.1-33.8,5.3-48.5-8.5-8.6-20.7-11.9-31-8.5Z"/>
      <path class="cls-1" d="M1174.77,1.32c-10.5,3.5-20,14.1-22.2,24.8-2.5,11.7,3.2,24.4,14.2,31.9,10.7,7.4,22.9,7.5,33.7,.3,17.7-11.8,20.1-33.8,5.3-48.5-8.5-8.6-20.7-11.9-31-8.5Z"/>
      <path class="cls-1" d="M92.77,129.32c-10.5,3.5-20,14.1-22.2,24.8-4.3,20.6,16.3,41.2,36.9,36.9,15.5-3.2,27.5-19,26-33.9-1.1-10.5-9-21.3-19-26.2-6.1-2.9-15.5-3.6-21.7-1.6Z"/>
      <path class="cls-1" d="M220.77,129.32c-15.1,5-25.3,21.6-22.2,36.2,2.5,11.9,13.6,23,25.4,25.5,19.4,4.1,39.5-14.2,37.5-33.9-1.1-10.5-9-21.3-19-26.2-6.1-2.9-15.5-3.6-21.7-1.6Z"/>
      <path class="cls-1" d="M348.77,129.32c-10.5,3.5-20,14.1-22.2,24.8-4.3,20.6,16.3,41.2,36.9,36.9,15.5-3.2,27.5-19,26-33.9-1.1-10.5-9-21.3-19-26.2-6.1-2.9-15.5-3.6-21.7-1.6Z"/>
      <path class="cls-1" d="M476.77,129.32c-10.5,3.5-20,14.1-22.2,24.8-4.3,20.6,16.3,41.2,36.9,36.9,15.5-3.2,27.5-19,26-33.9-1.1-10.5-9-21.3-19-26.2-6.1-2.9-15.5-3.6-21.7-1.6Z"/>
      <path class="cls-1" d="M604.77,129.32c-10.5,3.5-20,14.1-22.2,24.8-4.3,20.6,16.3,41.2,36.9,36.9,15.5-3.2,27.5-19,26-33.9-1.1-10.5-9-21.3-19-26.2-6.1-2.9-15.5-3.6-21.7-1.6Z"/>
      <path class="cls-1" d="M732.77,129.32c-10.5,3.5-20,14.1-22.2,24.8-4.3,20.6,16.3,41.2,36.9,36.9,15.5-3.2,27.5-19,26-33.9-1.1-10.5-9-21.3-19-26.2-6.1-2.9-15.5-3.6-21.7-1.6Z"/>
      <path class="cls-1" d="M860.77,129.32c-10.5,3.5-20,14.1-22.2,24.8-4.3,20.6,16.3,41.2,36.9,36.9,15.5-3.2,27.5-19,26-33.9-1.1-10.5-9-21.3-19-26.2-6.1-2.9-15.5-3.6-21.7-1.6Z"/>
      <path class="cls-1" d="M988.77,129.32c-10.5,3.5-20,14.1-22.2,24.8-4.3,20.6,16.3,41.2,36.9,36.9,15.5-3.2,27.5-19,26-33.9-1.1-10.5-9-21.3-19-26.2-6.1-2.9-15.5-3.6-21.7-1.6Z"/>
      <path class="cls-1" d="M1116.77,129.32c-10.5,3.5-20,14.1-22.2,24.8-2.5,11.7,3.2,24.4,14.2,31.9,10.7,7.4,22.9,7.5,33.7,.3,17.7-11.8,20.1-33.8,5.3-48.5-8.5-8.6-20.7-11.9-31-8.5Z"/>
      <path class="cls-1" d="M1244.77,129.32c-10.5,3.5-20,14.1-22.2,24.8-2.5,11.7,3.2,24.4,14.2,31.9,10.7,7.4,22.9,7.5,33.7,.3,17.7-11.8,20.1-33.8,5.3-48.5-8.5-8.6-20.7-11.9-31-8.5Z"/>
    </g>
  </g>
</svg>