<?xml version="1.0" encoding="UTF-8"?>
<svg id="Layer_2" data-name="Layer 2" xmlns="http://www.w3.org/2000/svg" viewBox="0 0 47.35 33.06">
  <defs>
    <style>
      .cls-1 {
        fill: #ffdaca;
      }
    </style>
  </defs>
  <g id="Layer_1-2" data-name="Layer 1">
    <path class="cls-1" d="M4.13,.24C2.22,.87,.5,2.79,.11,4.73c-.45,2.12,.58,4.42,2.57,5.78,1.94,1.34,4.15,1.36,6.1,.05,3.21-2.14,3.64-6.12,.96-8.79C8.2,.22,5.99-.38,4.13,.24Z"/>
    <path class="cls-1" d="M22.05,.24c-1.9,.63-3.62,2.55-4.02,4.49-.45,2.12,.58,4.42,2.57,5.78,1.94,1.34,4.15,1.36,6.1,.05,3.21-2.14,3.64-6.12,.96-8.79C26.13,.22,23.92-.38,22.05,.24Z"/>
    <path class="cls-1" d="M22.05,.24c-1.9,.63-3.62,2.55-4.02,4.49-.45,2.12,.58,4.42,2.57,5.78,1.94,1.34,4.15,1.36,6.1,.05,3.21-2.14,3.64-6.12,.96-8.79C26.13,.22,23.92-.38,22.05,.24Z"/>
    <path class="cls-1" d="M39.98,.24c-1.9,.63-3.62,2.55-4.02,4.49-.45,2.12,.58,4.42,2.57,5.78,1.94,1.34,4.15,1.36,6.1,.05,3.21-2.14,3.64-6.12,.96-8.79-1.54-1.56-3.75-2.16-5.62-1.54Z"/>
    <path class="cls-1" d="M39.98,.24c-1.9,.63-3.62,2.55-4.02,4.49-.45,2.12,.58,4.42,2.57,5.78,1.94,1.34,4.15,1.36,6.1,.05,3.21-2.14,3.64-6.12,.96-8.79-1.54-1.56-3.75-2.16-5.62-1.54Z"/>
    <path class="cls-1" d="M14.13,21.77c-1.9,.63-3.62,2.55-4.02,4.49-.45,2.12,.58,4.42,2.57,5.78,1.94,1.34,4.15,1.36,6.1,.05,3.21-2.14,3.64-6.12,.96-8.79-1.54-1.56-3.75-2.16-5.62-1.54Z"/>
    <path class="cls-1" d="M32.05,21.77c-1.9,.63-3.62,2.55-4.02,4.49-.45,2.12,.58,4.42,2.57,5.78,1.94,1.34,4.15,1.36,6.1,.05,3.21-2.14,3.64-6.12,.96-8.79-1.54-1.56-3.75-2.16-5.62-1.54Z"/>
    <path class="cls-1" d="M32.05,21.77c-1.9,.63-3.62,2.55-4.02,4.49-.45,2.12,.58,4.42,2.57,5.78,1.94,1.34,4.15,1.36,6.1,.05,3.21-2.14,3.64-6.12,.96-8.79-1.54-1.56-3.75-2.16-5.62-1.54Z"/>
  </g>
</svg>