<?xml version="1.0" encoding="UTF-8"?>
<svg id="Layer_2" data-name="Layer 2" xmlns="http://www.w3.org/2000/svg" viewBox="0 0 485.61 608.44">
  <defs>
    <style>
      .cls-1 {
        fill: #145297;
      }
    </style>
  </defs>
  <g id="Layer_1-2" data-name="Layer 1">
    <path class="cls-1" d="M454.47,147.25c-18.2,11.8-41.7,11.6-59.8-.4-14.2-10.5-26.9-25.7-43.4-32.1-35.8-17.6-88.3-4.1-114.7,5.3-26.4,9.2-54.5,22.8-78.5,46.3-6.9,6.8-22,27.1,12,43.4,33.9,16.1,138.9,54.8,165.9,64.9,26.8,10.2,66.5,29.3,90.7,58.7,19.7,23.9,27.1,56.7,21,93.1-12.1,71.3-62,115.7-108.8,142.4-51.8,29.4-91.4,36.1-126.3,38.8-34.8,2.9-84-2.1-124.4-17.4-30.9-12-59.7-35.3-75.5-65.5-12.9-24.5-19.4-57.1-2.5-89.7s56.5-44.9,80.4-39.7c23.9,5.4,34.2,15.9,39.6,28.5,8.1,18.9-.4,36.3,9.5,54.8,14.5,26.6,51,26.1,80.7,24,42.3-2.9,92.7-33.3,109.8-69.8,6.4-13.9,8.9-26-2.1-37.8-14-15-33.6-20.6-53.9-28.4-35.8-14-98.9-35.9-148.3-53.4-44.5-16.5-100.4-45.2-108.8-100.9-8.5-57.5,27-106.3,73.7-136.1C150.37,37.05,218.17,11.85,288.87,2.65c61.6-7.4,126.3-.8,173,38.8,20.8,18.7,29.1,47.2,20.2,74.1-4.7,12.8-15.4,24.3-27.3,31.8"/>
  </g>
</svg>