<svg width="24" height="24" viewBox="0 0 24 24" fill="none" xmlns="http://www.w3.org/2000/svg">
<g clip-path="url(#clip0_109_265)">
<path fill-rule="evenodd" clip-rule="evenodd" d="M2.075 9.479C2.341 8.917 2.67 8.346 3 7.845V6C3 2.122 6.822 0 12 0C17.316 0 21 2.043 21 6V7.845C21.33 8.346 21.659 8.917 21.925 9.479C23.399 9.994 24 11.696 24 13.551C24 15.476 23.104 18.289 20.683 18.739C18.724 22.231 15.806 24 12 24C8.195 24 5.276 22.231 3.317 18.739C0.897 18.289 0 15.476 0 13.551C0 11.704 0.599 9.995 2.075 9.479ZM21.94 12.669C21.52 12.975 20.902 13.059 20.216 12.873C18.678 12.423 16.696 11.362 12 11.375C7.305 11.362 5.322 12.423 3.784 12.873C3.097 13.059 2.479 12.975 2.059 12.668C1.819 14.274 2.398 16.771 3.967 16.801C4.335 16.808 4.67 17.017 4.838 17.344C7.228 22 10.82 22 12 22C13.181 22 16.771 22 19.162 17.344C19.33 17.017 19.665 16.808 20.032 16.801C21.885 16.765 22 13.583 22 13.551C22 13.227 21.98 12.931 21.94 12.669ZM15 17C14.998 17.007 14.232 19.354 12 19.354C9.85 19.354 9.002 17.007 9 17H15ZM8.75 12C8.06 12 7.5 12.671 7.5 13.5C7.5 14.328 8.06 15 8.75 15C9.44 15 10 14.328 10 13.5C10 12.671 9.44 12 8.75 12ZM16.5 13.5C16.5 14.328 15.94 15 15.25 15C14.56 15 14 14.328 14 13.5C14 12.671 14.56 12 15.25 12C15.94 12 16.5 12.671 16.5 13.5ZM19.51 9.246C17.056 8.094 14.959 7.614 12 7.614C9.466 7.614 7.074 8.118 4.464 9.287C4.127 9.833 3.839 10.394 3.674 10.809C6.578 9.804 8.463 9.37 12 9.383C15.64 9.37 17.529 9.84 20.326 10.809C20.156 10.384 19.858 9.804 19.51 9.246ZM9 6H15V2.83L12 4.83L9 2.83V6ZM14.996 2H9.004L12 4L14.996 2Z" fill="black"/>
</g>
<defs>
<clipPath id="clip0_109_265">
<rect width="24" height="24" fill="white"/>
</clipPath>
</defs>
</svg>
