<svg width="32" height="32" viewBox="0 0 32 32" fill="none" xmlns="http://www.w3.org/2000/svg">
<mask id="mask0_4_1977" style="mask-type:alpha" maskUnits="userSpaceOnUse" x="0" y="0" width="32" height="32">
<rect width="32" height="32" fill="#D9D9D9"/>
</mask>
<g mask="url(#mask0_4_1977)">
<path d="M15.9998 29.3334C14.1776 29.3334 12.4554 28.9834 10.8332 28.2834C9.21095 27.5834 7.79428 26.6278 6.58317 25.4167C5.37206 24.2056 4.4165 22.7889 3.7165 21.1667C3.0165 19.5445 2.6665 17.8222 2.6665 16C2.6665 14.1556 3.0165 12.4278 3.7165 10.8167C4.4165 9.20558 5.37206 7.79446 6.58317 6.58335C7.79428 5.37224 9.21095 4.41669 10.8332 3.71669C12.4554 3.01669 14.1776 2.66669 15.9998 2.66669C17.8443 2.66669 19.5721 3.01669 21.1832 3.71669C22.7943 4.41669 24.2054 5.37224 25.4165 6.58335C26.6276 7.79446 27.5832 9.20558 28.2832 10.8167C28.9832 12.4278 29.3332 14.1556 29.3332 16C29.3332 17.8222 28.9832 19.5445 28.2832 21.1667C27.5832 22.7889 26.6276 24.2056 25.4165 25.4167C24.2054 26.6278 22.7943 27.5834 21.1832 28.2834C19.5721 28.9834 17.8443 29.3334 15.9998 29.3334ZM15.9998 26.6C16.5776 25.8 17.0776 24.9667 17.4998 24.1C17.9221 23.2334 18.2665 22.3111 18.5332 21.3334H13.4665C13.7332 22.3111 14.0776 23.2334 14.4998 24.1C14.9221 24.9667 15.4221 25.8 15.9998 26.6ZM12.5332 26.0667C12.1332 25.3334 11.7832 24.5722 11.4832 23.7834C11.1832 22.9945 10.9332 22.1778 10.7332 21.3334H6.79984C7.44428 22.4445 8.24984 23.4111 9.2165 24.2334C10.1832 25.0556 11.2887 25.6667 12.5332 26.0667ZM19.4665 26.0667C20.7109 25.6667 21.8165 25.0556 22.7832 24.2334C23.7498 23.4111 24.5554 22.4445 25.1998 21.3334H21.2665C21.0665 22.1778 20.8165 22.9945 20.5165 23.7834C20.2165 24.5722 19.8665 25.3334 19.4665 26.0667ZM5.6665 18.6667H10.1998C10.1332 18.2222 10.0832 17.7834 10.0498 17.35C10.0165 16.9167 9.99984 16.4667 9.99984 16C9.99984 15.5334 10.0165 15.0834 10.0498 14.65C10.0832 14.2167 10.1332 13.7778 10.1998 13.3334H5.6665C5.55539 13.7778 5.47206 14.2167 5.4165 14.65C5.36095 15.0834 5.33317 15.5334 5.33317 16C5.33317 16.4667 5.36095 16.9167 5.4165 17.35C5.47206 17.7834 5.55539 18.2222 5.6665 18.6667ZM12.8665 18.6667H19.1332C19.1998 18.2222 19.2498 17.7834 19.2832 17.35C19.3165 16.9167 19.3332 16.4667 19.3332 16C19.3332 15.5334 19.3165 15.0834 19.2832 14.65C19.2498 14.2167 19.1998 13.7778 19.1332 13.3334H12.8665C12.7998 13.7778 12.7498 14.2167 12.7165 14.65C12.6832 15.0834 12.6665 15.5334 12.6665 16C12.6665 16.4667 12.6832 16.9167 12.7165 17.35C12.7498 17.7834 12.7998 18.2222 12.8665 18.6667ZM21.7998 18.6667H26.3332C26.4443 18.2222 26.5276 17.7834 26.5832 17.35C26.6387 16.9167 26.6665 16.4667 26.6665 16C26.6665 15.5334 26.6387 15.0834 26.5832 14.65C26.5276 14.2167 26.4443 13.7778 26.3332 13.3334H21.7998C21.8665 13.7778 21.9165 14.2167 21.9498 14.65C21.9832 15.0834 21.9998 15.5334 21.9998 16C21.9998 16.4667 21.9832 16.9167 21.9498 17.35C21.9165 17.7834 21.8665 18.2222 21.7998 18.6667ZM21.2665 10.6667H25.1998C24.5554 9.55558 23.7498 8.58891 22.7832 7.76669C21.8165 6.94446 20.7109 6.33335 19.4665 5.93335C19.8665 6.66669 20.2165 7.4278 20.5165 8.21669C20.8165 9.00558 21.0665 9.82224 21.2665 10.6667ZM13.4665 10.6667H18.5332C18.2665 9.68891 17.9221 8.76669 17.4998 7.90002C17.0776 7.03335 16.5776 6.20002 15.9998 5.40002C15.4221 6.20002 14.9221 7.03335 14.4998 7.90002C14.0776 8.76669 13.7332 9.68891 13.4665 10.6667ZM6.79984 10.6667H10.7332C10.9332 9.82224 11.1832 9.00558 11.4832 8.21669C11.7832 7.4278 12.1332 6.66669 12.5332 5.93335C11.2887 6.33335 10.1832 6.94446 9.2165 7.76669C8.24984 8.58891 7.44428 9.55558 6.79984 10.6667Z" fill="black"/>
</g>
</svg>
