<?xml version="1.0" encoding="utf-8"?>
<!-- Generator: Adobe Illustrator 27.0.0, SVG Export Plug-In . SVG Version: 6.00 Build 0)  -->
<svg version="1.1" id="Layer_1" xmlns="http://www.w3.org/2000/svg" xmlns:xlink="http://www.w3.org/1999/xlink" x="0px" y="0px"
	 viewBox="0 0 98.5 40" style="enable-background:new 0 0 98.5 40;" xml:space="preserve">
<style type="text/css">
	.st0{fill:#0058A3;}
	.st1{fill:#FFDB00;}
</style>
<path class="st0" d="M98.5,40H0V0h98.5L98.5,40z"/>
<path class="st1" d="M1.9,20c0,9.7,19.8,17.7,47.3,17.7c27.5,0,47.3-8,47.3-17.7S76.7,2.3,49.2,2.3S1.9,10.3,1.9,20z"/>
<path class="st0" d="M46.5,25.7c0.3,0.5,0.7,0.9,1,1.3H36.8c0-0.4-0.4-1.3-0.9-2c-0.5-0.7-2.9-4.4-2.9-4.4v5.1c0,0.4,0,0.8,0.2,1.3
	h-8.9c0.2-0.4,0.2-0.8,0.2-1.3V13.6c0-0.4,0-0.8-0.2-1.3h8.9c-0.2,0.4-0.2,0.8-0.2,1.2v5.3c0,0,2.8-3.7,3.5-4.6
	c0.5-0.6,1.1-1.6,1.1-2h9.3c-0.7,0.5-1.4,1.2-1.9,1.9l-3.4,4.1C41.6,18.3,45.9,24.8,46.5,25.7z M49.2,13.6v12.1c0,0.4,0,0.8-0.2,1.3
	h17.1v-4c-0.4,0.2-0.8,0.2-1.2,0.2h-7.2v-1.9h6.9v-3.1h-6.9v-1.9h7.2c0.4,0,0.8,0,1.3,0.2v-4.1H49C49.2,12.7,49.2,13.2,49.2,13.6z
	 M89.9,25.7c0.1,0.5,0.4,0.9,0.7,1.3h-9.3c0-0.4-0.1-0.8-0.3-1.3l-0.3-0.8l-0.1-0.2h-5.3l-0.1,0.2l-0.3,0.8
	c-0.1,0.4-0.3,0.8-0.2,1.3h-7.3c0.3-0.4,0.5-0.8,0.7-1.3l4.4-12.1c0.2-0.4,0.3-0.8,0.2-1.3H85c-0.1,0.4,0.1,0.8,0.3,1.2
	C85.3,13.6,89.9,25.7,89.9,25.7z M79.4,21.5l-1.3-3.4c-0.1-0.3-0.2-0.6-0.3-1c-0.1,0.3-0.2,0.6-0.2,1c0,0.1-0.6,1.6-1.2,3.4H79.4z
	 M20.2,12.3h-9.6c0.2,0.4,0.2,0.8,0.2,1.2v12.1c0,0.4,0,0.8-0.2,1.3h9.6C20,26.5,20,26.1,20,25.7V13.6C20,13.1,20,12.7,20.2,12.3z
	 M86.9,13.5c0-1,0.7-1.9,1.8-1.9c0,0,0,0,0,0h0.1c1.1,0,1.9,0.8,1.9,1.8v0.1c0,1.1-0.8,1.9-1.9,2s-1.9-0.8-2-1.9
	C86.9,13.6,86.9,13.5,86.9,13.5z M87.3,13.5c0,0.8,0.7,1.5,1.5,1.6c0.8,0,1.5-0.7,1.6-1.5c0-0.9-0.7-1.5-1.5-1.6
	c-0.8,0-1.5,0.6-1.5,1.4C87.3,13.3,87.3,13.5,87.3,13.5z M88.5,14.6h-0.3v-2.3H89c0.4,0,0.7,0.3,0.7,0.8c0,0.3-0.2,0.5-0.4,0.7
	l0.5,0.9h-0.4L89,13.8h-0.5L88.5,14.6z M88.5,13.5h0.5c0.2,0,0.4-0.2,0.4-0.4c0-0.2-0.1-0.4-0.4-0.4c0,0,0,0,0,0h-0.5L88.5,13.5z"/>
</svg>
