<svg width="130" height="26" viewBox="0 0 130 26" fill="none" xmlns="http://www.w3.org/2000/svg">
<g clip-path="url(#clip0_4_1864)">
<path d="M58.5134 23.6248C59.011 24.3651 59.5568 25.041 60.1828 25.6526H43.0873C43.0873 24.9766 42.4452 23.5926 41.7068 22.4983C40.9523 21.404 37.0516 15.4174 37.0516 15.4174V23.6248C37.0516 24.3168 37.0516 24.9766 37.4048 25.6526H23.1505C23.4715 24.9766 23.4715 24.3168 23.4715 23.6248V4.15223C23.4715 3.46022 23.4715 2.80041 23.1505 2.1245H37.4048C37.0516 2.80041 37.0516 3.46023 37.0516 4.13613V12.6333C37.0516 12.6333 41.6105 6.71102 42.6539 5.29483C43.4565 4.24878 44.4196 2.78432 44.4196 2.09231H59.2839C58.1246 2.9686 57.088 3.99702 56.2019 5.15L50.7602 11.7964C50.7602 11.7964 57.6145 22.2891 58.5134 23.6248ZM62.9759 4.15223V23.6248C62.9759 24.3168 62.9759 24.9766 62.6388 25.6526H90.1362V19.1349C89.462 19.4728 88.8039 19.4728 88.1297 19.4728H76.5561V16.383H87.6802V11.4424H76.5561V8.36861H88.1136C88.8039 8.36861 89.462 8.36861 90.1362 8.69047V2.15669H62.6549C62.9759 2.8165 62.9759 3.47632 62.9759 4.15223ZM128.276 23.6248C128.501 24.3812 128.886 25.0732 129.384 25.6526H114.471C114.536 24.9766 114.295 24.3168 114.022 23.6248L113.476 22.2891L113.348 21.9511H104.76L104.615 22.2891L104.134 23.6248C103.925 24.3168 103.668 24.9766 103.764 25.6526H91.9822C92.4638 25.0571 92.8169 24.3812 93.0416 23.6248L100.105 4.15223C100.345 3.46022 100.586 2.80041 100.506 2.1245H120.395C120.202 2.80041 120.555 3.46023 120.812 4.13613L128.276 23.6248ZM111.47 16.9784L109.383 11.5228C109.193 11.0189 109.038 10.5027 108.917 9.97791C108.837 10.509 108.676 11.024 108.516 11.5228C108.452 11.7481 107.553 14.1299 106.542 16.9784H111.47ZM16.3764 2.10841H0.886078C1.20712 2.78432 1.20712 3.44413 1.20712 4.12004V23.6087C1.20712 24.3007 1.20712 24.9606 0.886078 25.6365H16.3764C16.0393 24.9606 16.0393 24.3007 16.0393 23.6087V4.13613C16.0393 3.44413 16.0393 2.76822 16.3764 2.10841ZM123.493 3.9752C123.475 3.58101 123.537 3.18734 123.674 2.81733C123.81 2.44733 124.019 2.10844 124.289 1.82059C124.558 1.53273 124.882 1.30171 125.241 1.1411C125.601 0.980495 125.989 0.893536 126.382 0.885335H126.575C128.26 0.853149 129.625 2.18887 129.657 3.84646V3.9752C129.678 4.79682 129.373 5.59326 128.808 6.18933C128.244 6.78539 127.466 7.13224 126.647 7.15358C125.827 7.17492 125.033 6.869 124.438 6.30312C123.844 5.73724 123.498 4.95775 123.477 4.13613L123.493 3.9752ZM124.119 3.9752C124.119 5.32702 125.194 6.43744 126.575 6.46963C127.939 6.46963 129.047 5.3753 129.079 3.9913C129.079 2.62339 127.987 1.51296 126.607 1.49687C125.29 1.44859 124.183 2.46246 124.135 3.78209L124.119 3.9752ZM125.965 5.80981H125.419V2.10841H126.815C127.474 2.1245 127.971 2.65557 127.971 3.31539C127.971 3.76599 127.73 4.16832 127.329 4.39362L128.116 5.842H127.506L126.783 4.50627H125.981L125.965 5.80981ZM125.965 3.9752H126.719C127.072 3.9752 127.393 3.71771 127.393 3.34757C127.4 3.26252 127.389 3.17702 127.362 3.09629C127.334 3.01557 127.29 2.94131 127.233 2.87805C127.176 2.81479 127.107 2.76387 127.03 2.72838C126.952 2.6929 126.868 2.6736 126.783 2.67166H125.981L125.965 3.9752Z" fill="#555555"/>
</g>
<defs>
<clipPath id="clip0_4_1864">
<rect width="130" height="26" fill="white"/>
</clipPath>
</defs>
</svg>
