<svg width="32" height="32" viewBox="0 0 32 32" fill="none" xmlns="http://www.w3.org/2000/svg">
<mask id="mask0_1_587" style="mask-type:alpha" maskUnits="userSpaceOnUse" x="0" y="0" width="32" height="32">
<rect width="32" height="32" fill="#D9D9D9"/>
</mask>
<g mask="url(#mask0_1_587)">
<path d="M15.9998 28L14.0665 26.2667C11.8221 24.2444 9.9665 22.5 8.49984 21.0333C7.03317 19.5667 5.8665 18.25 4.99984 17.0833C4.13317 15.9167 3.52761 14.8444 3.18317 13.8667C2.83873 12.8889 2.6665 11.8889 2.6665 10.8667C2.6665 8.77777 3.3665 7.03333 4.7665 5.63333C6.1665 4.23333 7.91095 3.53333 9.99984 3.53333C11.1554 3.53333 12.2554 3.77777 13.2998 4.26666C14.3443 4.75555 15.2443 5.44444 15.9998 6.33333C16.7554 5.44444 17.6554 4.75555 18.6998 4.26666C19.7443 3.77777 20.8443 3.53333 21.9998 3.53333C24.0887 3.53333 25.8332 4.23333 27.2332 5.63333C28.6332 7.03333 29.3332 8.77777 29.3332 10.8667C29.3332 11.8889 29.1609 12.8889 28.8165 13.8667C28.4721 14.8444 27.8665 15.9167 26.9998 17.0833C26.1332 18.25 24.9665 19.5667 23.4998 21.0333C22.0332 22.5 20.1776 24.2444 17.9332 26.2667L15.9998 28ZM15.9998 24.4C18.1332 22.4889 19.8887 20.85 21.2665 19.4833C22.6443 18.1167 23.7332 16.9278 24.5332 15.9167C25.3332 14.9055 25.8887 14.0055 26.1998 13.2167C26.5109 12.4278 26.6665 11.6444 26.6665 10.8667C26.6665 9.53333 26.2221 8.42221 25.3332 7.53333C24.4443 6.64444 23.3332 6.19999 21.9998 6.19999C20.9554 6.19999 19.9887 6.49444 19.0998 7.08333C18.2109 7.67221 17.5998 8.42221 17.2665 9.33333H14.7332C14.3998 8.42221 13.7887 7.67221 12.8998 7.08333C12.0109 6.49444 11.0443 6.19999 9.99984 6.19999C8.6665 6.19999 7.55539 6.64444 6.6665 7.53333C5.77761 8.42221 5.33317 9.53333 5.33317 10.8667C5.33317 11.6444 5.48873 12.4278 5.79984 13.2167C6.11095 14.0055 6.6665 14.9055 7.4665 15.9167C8.2665 16.9278 9.35539 18.1167 10.7332 19.4833C12.1109 20.85 13.8665 22.4889 15.9998 24.4Z" fill="black"/>
</g>
</svg>
