<svg width="32" height="32" viewBox="0 0 32 32" fill="none" xmlns="http://www.w3.org/2000/svg">
<mask id="mask0_1_586" style="mask-type:alpha" maskUnits="userSpaceOnUse" x="0" y="0" width="32" height="32">
<rect width="32" height="32" fill="#D9D9D9"/>
</mask>
<g mask="url(#mask0_1_586)">
<path d="M8.00016 29.3334C7.26683 29.3334 6.63905 29.0722 6.11683 28.55C5.59461 28.0278 5.3335 27.4 5.3335 26.6667V10.6667C5.3335 9.93335 5.59461 9.30558 6.11683 8.78335C6.63905 8.26113 7.26683 8.00002 8.00016 8.00002H10.6668C10.6668 6.53335 11.1891 5.2778 12.2335 4.23335C13.2779 3.18891 14.5335 2.66669 16.0002 2.66669C17.4668 2.66669 18.7224 3.18891 19.7668 4.23335C20.8113 5.2778 21.3335 6.53335 21.3335 8.00002H24.0002C24.7335 8.00002 25.3613 8.26113 25.8835 8.78335C26.4057 9.30558 26.6668 9.93335 26.6668 10.6667V26.6667C26.6668 27.4 26.4057 28.0278 25.8835 28.55C25.3613 29.0722 24.7335 29.3334 24.0002 29.3334H8.00016ZM8.00016 26.6667H24.0002V10.6667H21.3335V13.3334C21.3335 13.7111 21.2057 14.0278 20.9502 14.2834C20.6946 14.5389 20.3779 14.6667 20.0002 14.6667C19.6224 14.6667 19.3057 14.5389 19.0502 14.2834C18.7946 14.0278 18.6668 13.7111 18.6668 13.3334V10.6667H13.3335V13.3334C13.3335 13.7111 13.2057 14.0278 12.9502 14.2834C12.6946 14.5389 12.3779 14.6667 12.0002 14.6667C11.6224 14.6667 11.3057 14.5389 11.0502 14.2834C10.7946 14.0278 10.6668 13.7111 10.6668 13.3334V10.6667H8.00016V26.6667ZM13.3335 8.00002H18.6668C18.6668 7.26669 18.4057 6.63891 17.8835 6.11669C17.3613 5.59446 16.7335 5.33335 16.0002 5.33335C15.2668 5.33335 14.6391 5.59446 14.1168 6.11669C13.5946 6.63891 13.3335 7.26669 13.3335 8.00002Z" fill="black"/>
</g>
</svg>
