<?xml version="1.0" encoding="UTF-8"?>
<svg id="Layer_2" data-name="Layer 2" xmlns="http://www.w3.org/2000/svg" viewBox="0 0 60.56 63">
  <defs>
    <style>
      .cls-1 {
        fill: #028267;
      }

      .cls-2 {
        fill: none;
      }
    </style>
  </defs>
  <g id="Layer_1-2" data-name="Layer 1">
    <path class="cls-1" d="M28.94,24.05c-11.4,0-20.64,8.72-20.64,19.47s9.25,19.48,20.64,19.48,20.65-8.72,20.65-19.48c-.01-10.75-9.25-19.47-20.65-19.47Zm0,28.21c-5.16,0-9.25-3.89-9.25-8.73s4.15-8.72,9.25-8.72,9.26,3.91,9.26,8.72c-.01,4.82-4.15,8.73-9.26,8.73Z"/>
    <path class="cls-1" d="M9.22,49.31c2.59,7.88,10.33,13.6,19.51,13.69,2.06-5.18,.72-9.22,.06-10.75-4.24-.07-7.77-2.82-8.79-6.55-7.11-.99-9.81,1.86-10.78,3.6Z"/>
    <path class="cls-1" d="M28.95,63c9.36,0,17.27-5.9,19.79-13.97-.68-.98-3.75-4.6-10.85-3.29-1.04,3.74-4.64,6.51-8.94,6.51h-.18c.38,.87,2.11,5.35-.07,10.75h.25Z"/>
    <path class="cls-1" d="M28.94,24.05h-.06v10.75h.06c5.11,0,9.26,3.91,9.26,8.72,0,.88-.14,1.71-.39,2.5,.04-.1,.07-.19,.09-.29,7.07-1.3,10.14,2.3,10.85,3.29,.54-1.74,.84-3.59,.84-5.5-.01-10.75-9.25-19.47-20.65-19.47Z"/>
    <path class="cls-1" d="M29.42,17.45c4.58-.22,8.28-3.59,8.72-7.86-2.14,1.09-4.55,1.79-7.09,1.99-.16,2.08-.73,4.06-1.63,5.87Z"/>
    <path class="cls-1" d="M28.94,0c-.44,0-.87,.03-1.3,.09,2.18,2.83,3.47,6.33,3.47,10.11,0,.47-.02,.92-.06,1.37,2.54-.2,4.95-.89,7.09-1.99,.04-.28,.05-.57,.05-.86-.01-4.81-4.15-8.72-9.26-8.72Z"/>
    <path class="cls-1" d="M29.52,11.64c-3.62,0-6.98-1-9.82-2.72,.11,4.73,4.2,8.53,9.25,8.53,.16,0,.33,0,.48-.01,.88-1.81,1.46-3.79,1.63-5.88-.51,.06-1.01,.08-1.53,.08Z"/>
    <path class="cls-1" d="M19.69,8.73v.19c2.84,1.71,6.21,2.72,9.82,2.72,.52,0,1.04-.02,1.54-.07,.04-.46,.06-.91,.06-1.37,0-3.78-1.3-7.27-3.47-10.11-4.5,.59-7.95,4.23-7.95,8.63Z"/>
    <path class="cls-1" d="M51.8,16.02c-1.48,0-2.84,.5-3.9,1.34-2.19,1.57-4.62,2.87-7.21,3.86,2.39,1.9,3.84,4.38,3.84,7.09,0,1.47-.42,2.87-1.19,4.15,4.55-1.5,8.75-3.69,12.49-6.45,1.25-1.04,2.05-2.57,2.05-4.28,0-3.17-2.72-5.72-6.08-5.71Z"/>
    <path class="cls-1" d="M16.74,21.05c-2.43-.97-4.7-2.21-6.76-3.69-1.06-.84-2.43-1.36-3.92-1.36-3.35,0-6.05,2.57-6.05,5.72,0,1.98,1.08,3.73,2.71,4.76,3.18,2.28,6.71,4.15,10.51,5.53,.18,.07,.34,.12,.52,.18-.67-1.21-1.05-2.52-1.05-3.89,0-2.78,1.53-5.33,4.05-7.26Z"/>
    <path class="cls-1" d="M40.71,21.22c-3.56,1.36-7.43,2.11-11.51,2.14,.22,1.56,.34,3.17,.34,4.8,0,2.27-.22,4.48-.66,6.59h.07c5.04,0,9.88-.82,14.39-2.3,.77-1.28,1.19-2.68,1.19-4.15,0-2.71-1.45-5.19-3.83-7.09Z"/>
    <path class="cls-1" d="M16.74,21.05c-2.52,1.93-4.06,4.48-4.06,7.27,0,1.37,.38,2.68,1.05,3.89,4.72,1.64,9.84,2.56,15.16,2.56,.42-2.11,.66-4.32,.66-6.59,0-1.63-.12-3.23-.34-4.8h-.22c-4.35,.01-8.47-.82-12.24-2.32Z"/>
    <rect class="cls-2" width="60.56" height="63"/>
  </g>
</svg>