<?xml version="1.0" encoding="UTF-8"?>
<svg id="Layer_2" data-name="Layer 2" xmlns="http://www.w3.org/2000/svg" viewBox="0 0 284.5 123">
  <defs>
    <style>
      .cls-1, .cls-2 {
        stroke: #fff;
        stroke-miterlimit: 10;
      }

      .cls-2 {
        fill: #f03c32;
      }
    </style>
  </defs>
  <g id="_레이어_1" data-name="레이어 1">
    <g>
      <polygon class="cls-2" points="62.8 2.1 53.9 2.1 53.9 80.5 88 80.5 88 71.6 62.8 71.6 62.8 2.1"/>
      <rect class="cls-2" x="218.6" y="2.1" width="8.9" height="78.4"/>
      <path class="cls-2" d="M17.9,2.1H.5V80.5H9.4v-31.4h8.5c13,0,23.5-10.5,23.5-23.5h0c0-13-10.5-23.5-23.5-23.5Zm-.1,38.2H9.4V10.9h8.4c8.1,0,14.7,6.6,14.7,14.7s-6.6,14.7-14.7,14.7Z"/>
      <path class="cls-2" d="M141.1,72.1h-12.1c-13.4,0-16.7-6.6-16.7-14.7h0c0-8.1,4.2-14.7,16.7-14.7h8.3v-8.9h-9.8c-8.4,0-15.2-5-15.2-11.8s6.8-12.6,15.2-12.6h13.6V.5h-16.6c-11.7,0-21.2,10.4-21.2,22.1,0,5.9,2.1,12,7.2,16-5.4,4.3-7.5,11.2-7.5,18.9h0c0,13,4.6,23.5,23.5,23.5h14.6v-8.9Z"/>
      <path class="cls-2" d="M167.3,2.1h-8.9V80.5h8.9c18.9,0,34.2-17.6,34.2-39.2S186.2,2.1,167.3,2.1Zm0,68V12.4c14,0,25.4,12.9,25.4,28.8s-11.4,28.9-25.4,28.9Z"/>
      <path class="cls-2" d="M284,60.9c0-10.7-5.9-15.8-11.1-20.3l-1-.9c-1.7-1.5-3.9-2.8-6.2-4.1-6.7-3.9-11-7-11-12.9,0-7.3,3.9-11.1,11.5-11.1,6.3,0,15.1,2.8,15.2,2.8h0V5.4c-3.5-1-9.8-2.5-15.2-2.5-9.7,0-20.1,5.2-20.1,19.7,0,11.3,9.2,16.8,15.3,20.3,1.9,1.1,3.8,2.2,4.9,3.2l1,.9c4.9,4.2,8.1,7,8.1,13.8,0,7.5-6.5,10.8-13,10.8-8.4,0-16.7-4.1-16.8-4.2v9.3c3.9,1.5,10.2,3.4,16.8,3.4,12.5,.2,21.6-8,21.6-19.2Z"/>
      <polygon class="cls-1" points="1.9 122.4 11.2 122.4 11.2 120.9 3.3 120.9 3.3 113.8 11.2 113.8 11.2 112.3 3.3 112.3 3.3 105.1 11.2 105.1 11.2 103.7 1.9 103.7 1.9 122.4"/>
      <polygon class="cls-1" points="69.8 122.4 79 122.4 79 120.9 71.2 120.9 71.2 113.8 79 113.8 79 112.3 71.2 112.3 71.2 105.1 79 105.1 79 103.7 69.8 103.7 69.8 122.4"/>
      <polygon class="cls-1" points="226.9 122.4 236.2 122.4 236.2 120.9 228.4 120.9 228.4 113.8 236.2 113.8 236.2 112.3 228.4 112.3 228.4 105.1 236.2 105.1 236.2 103.7 226.9 103.7 226.9 122.4"/>
      <polygon class="cls-1" points="47.2 105.1 51.9 105.1 51.9 122.3 53.4 122.3 53.4 105.1 58.1 105.1 58.1 103.7 47.2 103.7 47.2 105.1"/>
      <polygon class="cls-1" points="112.5 105.1 117.3 105.1 117.3 122.3 118.7 122.3 118.7 105.1 123.5 105.1 123.5 103.7 112.5 103.7 112.5 105.1"/>
      <polygon class="cls-1" points="272.1 105.1 276.9 105.1 276.9 122.3 278.3 122.3 278.3 105.1 283.1 105.1 283.1 103.7 272.1 103.7 272.1 105.1"/>
      <rect class="cls-1" x="158.7" y="103.7" width="1.4" height="18.6"/>
      <path class="cls-1" d="M139.8,103.6l-.7,1.9-6,17h1.4l2.5-7h5.7l2.5,7h1.4l-6-17-.8-1.9Zm-2.4,10.4l2.4-6.8,2.4,6.8h-4.8Z"/>
      <polygon class="cls-1" points="34.2 119.2 25.1 103.7 24 103.7 24 122.3 25.3 122.3 25.3 106.8 34.5 122.3 35.6 122.3 35.6 103.7 34.2 103.7 34.2 119.2"/>
      <polygon class="cls-1" points="259.2 119.2 250 103.7 248.9 103.7 248.9 122.3 250.3 122.3 250.3 106.8 259.4 122.3 260.6 122.3 260.6 103.7 259.2 103.7 259.2 119.2"/>
      <polygon class="cls-1" points="183.4 119.2 174.3 103.7 173.1 103.7 173.1 122.3 174.5 122.3 174.5 106.8 183.6 122.3 184.8 122.3 184.8 103.7 183.4 103.7 183.4 119.2"/>
      <polygon class="cls-1" points="205.9 115.6 198.9 103.7 197.7 103.7 197.7 122.3 199.1 122.3 199.1 106.8 205.1 116.9 205.9 118.3 206.7 116.9 212.7 106.8 212.7 122.3 214 122.3 214 103.7 212.9 103.7 205.9 115.6"/>
      <path class="cls-1" d="M102.1,109.8c0-3.4-2.8-6.2-6.2-6.2h-4.4v18.6h1.4v-6.3h3.1l4.1,6.3h1.6l-4.2-6.5c2.7-.6,4.6-3,4.6-5.9Zm-6.1,4.8h-3v-9.6h3c2.6,0,4.8,2.1,4.8,4.8s-2.2,4.8-4.8,4.8Z"/>
    </g>
  </g>
</svg>