<?xml version="1.0" encoding="UTF-8"?>
<svg id="Layer_2" data-name="Layer 2" xmlns="http://www.w3.org/2000/svg" viewBox="0 0 58.8 64.04">
  <defs>
    <style>
      .cls-1 {
        fill: #028267;
        stroke: #fff;
        stroke-miterlimit: 10;
      }
    </style>
  </defs>
  <g id="Layer_2-2" data-name="Layer 2">
    <path class="cls-1" d="M29.4,24.54c-11.4,0-20.6,8.8-20.6,19.5s9.3,19.5,20.6,19.5,20.6-8.7,20.6-19.5c.1-10.7-9.2-19.5-20.6-19.5Zm0,28.3c-5.2,0-9.2-3.9-9.2-8.7s4.1-8.7,9.2-8.7,9.3,3.9,9.3,8.7-4.2,8.7-9.3,8.7Z"/>
    <path class="cls-1" d="M9.7,49.84c2.6,7.9,10.3,13.6,19.5,13.7,2.1-5.2,.7-9.2,.1-10.8-4.2-.1-7.8-2.8-8.8-6.5-7.1-1-9.8,1.9-10.8,3.6h0Z"/>
    <path class="cls-1" d="M29.5,63.54c9.4,0,17.3-5.9,19.8-14-.7-1-3.8-4.6-10.9-3.3-1,3.7-4.6,6.5-8.9,6.5h-.2c.4,.9,2.1,5.3-.1,10.8h.3Z"/>
    <path class="cls-1" d="M29.4,24.54h0l-.1,10.8h.1c5.1,0,9.3,3.9,9.3,8.7,0,.9-.1,1.7-.4,2.5,0-.1,.1-.2,.1-.3,7.1-1.3,10.1,2.3,10.9,3.3,.5-1.7,.8-3.6,.8-5.5,0-10.7-9.3-19.4-20.7-19.5Z"/>
    <path class="cls-1" d="M29.9,18.04c4.6-.2,8.3-3.6,8.7-7.9-2.1,1.1-4.5,1.8-7.1,2-.1,2.1-.7,4-1.6,5.9Z"/>
    <path class="cls-1" d="M29.4,.54c-.4,0-.9,0-1.3,.1,2.2,2.8,3.5,6.3,3.5,10.1,0,.5,0,.9-.1,1.4,2.5-.2,4.9-.9,7.1-2v-.9c.1-4.8-4.1-8.7-9.2-8.7h0Z"/>
    <path class="cls-1" d="M30,12.14c-3.6,0-7-1-9.8-2.7,.1,4.7,4.2,8.5,9.2,8.5h.5c.9-1.8,1.5-3.8,1.6-5.9-.5,.1-1,.1-1.5,.1h0Z"/>
    <path class="cls-1" d="M20.2,9.24v.2c2.8,1.7,6.2,2.7,9.8,2.7,.5,0,1,0,1.5-.1,0-.5,.1-.9,.1-1.4,0-3.8-1.3-7.3-3.5-10.1-4.5,.7-7.9,4.3-7.9,8.7h0Z"/>
    <path class="cls-1" d="M52.3,16.54c-1.5,0-2.8,.5-3.9,1.3-2.2,1.6-4.6,2.9-7.2,3.9,2.4,1.9,3.8,4.4,3.8,7.1,0,1.5-.4,2.9-1.2,4.2,4.5-1.5,8.8-3.7,12.5-6.5,1.2-1,2-2.6,2-4.3,.1-3.1-2.6-5.7-6-5.7Z"/>
    <path class="cls-1" d="M17.2,21.54c-2.4-1-4.7-2.2-6.8-3.7-1-.8-2.4-1.3-3.8-1.3-3.4,0-6.1,2.6-6.1,5.7,0,2,1.1,3.7,2.7,4.8,3.2,2.3,6.7,4.1,10.5,5.5,.2,.1,.3,.1,.5,.2-.7-1.2-1.1-2.5-1.1-3.9,.1-2.8,1.6-5.3,4.1-7.3h0Z"/>
    <path class="cls-1" d="M41.2,21.74c-3.6,1.4-7.4,2.1-11.5,2.1,.2,1.6,.3,3.2,.3,4.8,0,2.3-.2,4.5-.7,6.6h.1c5,0,9.9-.8,14.4-2.3,.8-1.3,1.2-2.7,1.2-4.1,0-2.7-1.4-5.2-3.8-7.1h0Z"/>
    <path class="cls-1" d="M17.2,21.54c-2.5,1.9-4.1,4.5-4.1,7.3,0,1.4,.4,2.7,1.1,3.9,4.7,1.6,9.8,2.6,15.2,2.6,.4-2.1,.7-4.3,.7-6.6,0-1.6-.1-3.2-.3-4.8h-.3c-4.4,0-8.5-.8-12.3-2.4h0Z"/>
  </g>
</svg>