<?xml version="1.0" encoding="UTF-8"?>
<svg id="Layer_2" data-name="Layer 2" xmlns="http://www.w3.org/2000/svg" viewBox="0 0 297.78 133.78">
  <defs>
    <style>
      .cls-1 {
        fill: #fff;
      }

      .cls-2 {
        fill: #f03c32;
      }
    </style>
  </defs>
  <g id="_레이어_1" data-name="레이어 1">
    <rect class="cls-2" width="297.78" height="133.78"/>
    <polygon class="cls-1" points="69.52 6.66 60.62 6.66 60.62 85.06 94.72 85.06 94.72 76.16 69.52 76.16 69.52 6.66"/>
    <rect class="cls-1" x="225.32" y="6.66" width="8.9" height="78.4"/>
    <path class="cls-1" d="M24.62,6.66H7.22V85.06h8.9v-31.4h8.5c13,0,23.5-10.5,23.5-23.5h0c0-13-10.5-23.5-23.5-23.5Zm-.1,38.2h-8.4V15.46h8.4c8.1,0,14.7,6.6,14.7,14.7s-6.6,14.7-14.7,14.7Z"/>
    <path class="cls-1" d="M147.82,76.66h-12.1c-13.4,0-16.7-6.6-16.7-14.7h0c0-8.1,4.2-14.7,16.7-14.7h8.3v-8.9h-9.8c-8.4,0-15.2-5-15.2-11.8s6.8-12.6,15.2-12.6h13.6V5.06h-16.6c-11.7,0-21.2,10.4-21.2,22.1,0,5.9,2.1,12,7.2,16-5.4,4.3-7.5,11.2-7.5,18.9h0c0,13,4.6,23.5,23.5,23.5h14.6v-8.9Z"/>
    <path class="cls-1" d="M174.02,6.66h-8.9V85.06h8.9c18.9,0,34.2-17.6,34.2-39.2S192.92,6.66,174.02,6.66Zm0,68V16.96c14,0,25.4,12.9,25.4,28.8s-11.4,28.9-25.4,28.9Z"/>
    <path class="cls-1" d="M290.72,65.46c0-10.7-5.9-15.8-11.1-20.3l-1-.9c-1.7-1.5-3.9-2.8-6.2-4.1-6.7-3.9-11-7-11-12.9,0-7.3,3.9-11.1,11.5-11.1,6.3,0,15.1,2.8,15.2,2.8h0V9.96c-3.5-1-9.8-2.5-15.2-2.5-9.7,0-20.1,5.2-20.1,19.7,0,11.3,9.2,16.8,15.3,20.3,1.9,1.1,3.8,2.2,4.9,3.2l1,.9c4.9,4.2,8.1,7,8.1,13.8,0,7.5-6.5,10.8-13,10.8-8.4,0-16.7-4.1-16.8-4.2v9.3c3.9,1.5,10.2,3.4,16.8,3.4,12.5,.2,21.6-8,21.6-19.2Z"/>
    <polygon class="cls-1" points="8.62 126.96 17.92 126.96 17.92 125.46 10.02 125.46 10.02 118.36 17.92 118.36 17.92 116.86 10.02 116.86 10.02 109.66 17.92 109.66 17.92 108.26 8.62 108.26 8.62 126.96"/>
    <polygon class="cls-1" points="76.52 126.96 85.72 126.96 85.72 125.46 77.92 125.46 77.92 118.36 85.72 118.36 85.72 116.86 77.92 116.86 77.92 109.66 85.72 109.66 85.72 108.26 76.52 108.26 76.52 126.96"/>
    <polygon class="cls-1" points="233.62 126.96 242.92 126.96 242.92 125.46 235.12 125.46 235.12 118.36 242.92 118.36 242.92 116.86 235.12 116.86 235.12 109.66 242.92 109.66 242.92 108.26 233.62 108.26 233.62 126.96"/>
    <polygon class="cls-1" points="53.92 109.66 58.62 109.66 58.62 126.86 60.12 126.86 60.12 109.66 64.82 109.66 64.82 108.26 53.92 108.26 53.92 109.66"/>
    <polygon class="cls-1" points="119.22 109.66 124.02 109.66 124.02 126.86 125.42 126.86 125.42 109.66 130.22 109.66 130.22 108.26 119.22 108.26 119.22 109.66"/>
    <polygon class="cls-1" points="278.82 109.66 283.62 109.66 283.62 126.86 285.02 126.86 285.02 109.66 289.82 109.66 289.82 108.26 278.82 108.26 278.82 109.66"/>
    <rect class="cls-1" x="165.42" y="108.26" width="1.4" height="18.6"/>
    <path class="cls-1" d="M146.52,108.16l-.7,1.9-6,17h1.4l2.5-7h5.7l2.5,7h1.4l-6-17-.8-1.9Zm-2.4,10.4l2.4-6.8,2.4,6.8h-4.8Z"/>
    <polygon class="cls-1" points="40.92 123.76 31.82 108.26 30.72 108.26 30.72 126.86 32.02 126.86 32.02 111.36 41.22 126.86 42.32 126.86 42.32 108.26 40.92 108.26 40.92 123.76"/>
    <polygon class="cls-1" points="265.92 123.76 256.72 108.26 255.62 108.26 255.62 126.86 257.02 126.86 257.02 111.36 266.12 126.86 267.32 126.86 267.32 108.26 265.92 108.26 265.92 123.76"/>
    <polygon class="cls-1" points="190.12 123.76 181.02 108.26 179.82 108.26 179.82 126.86 181.22 126.86 181.22 111.36 190.32 126.86 191.52 126.86 191.52 108.26 190.12 108.26 190.12 123.76"/>
    <polygon class="cls-1" points="212.62 120.16 205.62 108.26 204.42 108.26 204.42 126.86 205.82 126.86 205.82 111.36 211.82 121.46 212.62 122.86 213.42 121.46 219.42 111.36 219.42 126.86 220.72 126.86 220.72 108.26 219.62 108.26 212.62 120.16"/>
    <path class="cls-1" d="M108.82,114.36c0-3.4-2.8-6.2-6.2-6.2h-4.4v18.6h1.4v-6.3h3.1l4.1,6.3h1.6l-4.2-6.5c2.7-.6,4.6-3,4.6-5.9Zm-6.1,4.8h-3v-9.6h3c2.6,0,4.8,2.1,4.8,4.8s-2.2,4.8-4.8,4.8Z"/>
  </g>
</svg>