<?xml version="1.0" encoding="UTF-8"?>
<svg id="Layer_2" data-name="Layer 2" xmlns="http://www.w3.org/2000/svg" viewBox="0 0 40.9 59.79">
  <defs>
    <style>
      .cls-1 {
        fill: #f03c32;
      }
    </style>
  </defs>
  <g id="_레이어_1" data-name="레이어 1">
    <path class="cls-1" d="M17.4,0H3C1.34,0,0,1.34,0,3V59.79H5.9c1.66,0,3-1.34,3-3v-9.79h8.5c13,0,23.5-10.5,23.5-23.5h0C40.9,10.5,30.4,0,17.4,0Zm-.53,38.2h-4.97c-1.66,0-3-1.34-3-3V11.8c0-1.66,1.34-3,3-3h5.4c8.35,0,15.11,7.01,14.68,15.45-.4,7.89-7.21,13.95-15.11,13.95Z"/>
  </g>
</svg>