<?xml version="1.0" encoding="utf-8"?>
<!-- Generator: Adobe Illustrator 25.4.1, SVG Export Plug-In . SVG Version: 6.00 Build 0)  -->
<svg version="1.0" id="레이어_1" xmlns="http://www.w3.org/2000/svg" xmlns:xlink="http://www.w3.org/1999/xlink" x="0px"
	 y="0px" viewBox="0 0 283.5 121.9" enable-background="new 0 0 283.5 121.9" xml:space="preserve">
<g>
	<polygon fill="#FFFFFF" points="62.3,1.6 53.4,1.6 53.4,80 87.5,80 87.5,71.1 62.3,71.1 	"/>
	<rect x="218.1" y="1.6" fill="#FFFFFF" width="8.9" height="78.4"/>
	<path fill="#FFFFFF" d="M17.4,1.6H0V80h8.9V48.6h8.5c13,0,23.5-10.5,23.5-23.5v0C40.9,12.1,30.4,1.6,17.4,1.6z M17.3,39.8H8.9V10.4
		h8.4C25.4,10.4,32,17,32,25.1S25.4,39.8,17.3,39.8z"/>
	<path fill="#FFFFFF" d="M140.6,71.6h-12.1c-13.4,0-16.7-6.6-16.7-14.7v0c0-8.1,4.2-14.7,16.7-14.7h8.3v-8.9v0H127
		c-8.4,0-15.2-5-15.2-11.8S118.6,8.9,127,8.9h13.6V0h-16.6c-11.7,0-21.2,10.4-21.2,22.1c0,5.9,2.1,12,7.2,16
		c-5.4,4.3-7.5,11.2-7.5,18.9v0c0,13,4.6,23.5,23.5,23.5h14.6V71.6z"/>
	<path fill="#FFFFFF" d="M166.8,1.6h-8.9V80h8.9c18.9,0,34.2-17.6,34.2-39.2S185.7,1.6,166.8,1.6z M166.8,69.6V11.9
		c14,0,25.4,12.9,25.4,28.8S180.8,69.6,166.8,69.6z"/>
	<path fill="#FFFFFF" d="M283.5,60.4c0-10.7-5.9-15.8-11.1-20.3l-1-0.9c-1.7-1.5-3.9-2.8-6.2-4.1c-6.7-3.9-11-7-11-12.9
		c0-7.3,3.9-11.1,11.5-11.1c6.3,0,15.1,2.8,15.2,2.8c0,0,0,0,0,0v-9c-3.5-1-9.8-2.5-15.2-2.5c-9.7,0-20.1,5.2-20.1,19.7
		c0,11.3,9.2,16.8,15.3,20.3c1.9,1.1,3.8,2.2,4.9,3.2l1,0.9c4.9,4.2,8.1,7,8.1,13.8c0,7.5-6.5,10.8-13,10.8
		c-8.4,0-16.7-4.1-16.8-4.2v9.3c3.9,1.5,10.2,3.4,16.8,3.4C274.4,79.8,283.5,71.6,283.5,60.4z"/>
	<polygon fill="#FFFFFF" points="1.4,121.9 10.7,121.9 10.7,120.4 2.8,120.4 2.8,113.3 10.7,113.3 10.7,111.8 2.8,111.8 2.8,104.6 
		10.7,104.6 10.7,103.2 1.4,103.2 	"/>
	<polygon fill="#FFFFFF" points="69.3,121.9 78.5,121.9 78.5,120.4 70.7,120.4 70.7,113.3 78.5,113.3 78.5,111.8 70.7,111.8 
		70.7,104.6 78.5,104.6 78.5,103.2 69.3,103.2 	"/>
	<polygon fill="#FFFFFF" points="226.4,121.9 235.7,121.9 235.7,120.4 227.9,120.4 227.9,113.3 235.7,113.3 235.7,111.8 
		227.9,111.8 227.9,104.6 235.7,104.6 235.7,103.2 226.4,103.2 	"/>
	<polygon fill="#FFFFFF" points="46.7,104.6 51.4,104.6 51.4,121.8 52.9,121.8 52.9,104.6 57.6,104.6 57.6,103.2 46.7,103.2 	"/>
	<polygon fill="#FFFFFF" points="112,104.6 116.8,104.6 116.8,121.8 118.2,121.8 118.2,104.6 123,104.6 123,103.2 112,103.2 	"/>
	<polygon fill="#FFFFFF" points="271.6,104.6 276.4,104.6 276.4,121.8 277.8,121.8 277.8,104.6 282.6,104.6 282.6,103.2 
		271.6,103.2 	"/>
	<rect x="158.2" y="103.2" fill="#FFFFFF" width="1.4" height="18.6"/>
	<path fill="#FFFFFF" d="M139.3,103.1l-0.7,1.9l-6,17h1.4l2.5-7h5.7l2.5,7h1.4l-6-17L139.3,103.1z M136.9,113.5l2.4-6.8l2.4,6.8
		H136.9z"/>
	<polygon fill="#FFFFFF" points="33.7,118.7 24.6,103.2 23.5,103.2 23.5,121.8 24.8,121.8 24.8,106.3 34,121.8 35.1,121.8 
		35.1,103.2 33.7,103.2 	"/>
	<polygon fill="#FFFFFF" points="258.7,118.7 249.5,103.2 248.4,103.2 248.4,121.8 249.8,121.8 249.8,106.3 258.9,121.8 
		260.1,121.8 260.1,103.2 258.7,103.2 	"/>
	<polygon fill="#FFFFFF" points="182.9,118.7 173.8,103.2 172.6,103.2 172.6,121.8 174,121.8 174,106.3 183.1,121.8 184.3,121.8 
		184.3,103.2 182.9,103.2 	"/>
	<polygon fill="#FFFFFF" points="205.4,115.1 198.4,103.2 197.2,103.2 197.2,121.8 198.6,121.8 198.6,106.3 204.6,116.4 
		205.4,117.8 206.2,116.4 212.2,106.3 212.2,121.8 213.5,121.8 213.5,103.2 212.4,103.2 	"/>
	<path fill="#FFFFFF" d="M101.6,109.3c0-3.4-2.8-6.2-6.2-6.2h-3v0h-1.4v18.6h1.4v-6.3h3c0,0,0.1,0,0.1,0l4.1,6.3h1.6l-4.2-6.5
		C99.7,114.6,101.6,112.2,101.6,109.3z M95.5,114.1h-3v-9.6h3c2.6,0,4.8,2.1,4.8,4.8C100.3,112,98.1,114.1,95.5,114.1z"/>
</g>
</svg>
