<svg xmlns="http://www.w3.org/2000/svg" xml:space="preserve" stroke-miterlimit="10" style="fill-rule:nonzero;clip-rule:evenodd;stroke-linecap:round;stroke-linejoin:round" viewBox="0 0 512 512"><defs><linearGradient id="a" x1="44.4673" x2="384.32" y1="42.7247" y2="355.036" gradientUnits="userSpaceOnUse"><stop offset="0" stop-color="#0ad4df"/><stop offset="1" stop-color="#07eebf"/></linearGradient></defs><g fill-rule="evenodd"><path fill="url(#a)" d="M89.825 0h332.35C471.784 0 512 40.216 512 89.825v332.35C512 471.784 471.784 512 422.175 512H89.825C40.216 512 0 471.784 0 422.175V89.825C0 40.216 40.216 0 89.825 0Z"/><path fill="#fff" d="M75.276 172.053s12.05-7.126 17.85-9.846c5.8-2.719 11.432-4.902 16.848-6.621a120.067 120.067 0 0 1 15.547-3.84c4.933-.866 9.598-1.343 13.947-1.504 4.348-.161 8.38-.006 12.045.39 3.665.397 6.963 1.035 9.845 1.841 2.881.805 5.346 1.779 7.344 2.846.56.287 1.359.727 2.319 1.342.96.615 2.08 1.405 3.281 2.392a36.862 36.862 0 0 1 3.77 3.571 37.661 37.661 0 0 1 3.785 4.881 38.856 38.856 0 0 1 3.327 6.322 42.78 42.78 0 0 1 2.396 7.892c.591 2.907.948 6.098.993 9.594.044 3.495-.225 7.296-.885 11.424l-1.243 7.923-1.242 7.924-1.243 7.923-1.242 7.923-1.243 7.923-1.242 7.924-1.242 7.923-1.243 7.923a180.494 180.494 0 0 0-1.094 9.551c-.255 2.986-.398 5.771-.421 8.354-.024 2.582.072 4.962.295 7.133.223 2.172.573 4.137 1.056 5.89.484 1.753 1.102 3.295 1.861 4.621.759 1.327 1.659 2.438 2.708 3.331a10.72 10.72 0 0 0 3.6 2.015c1.354.45 2.864.677 4.536.677 1.465 0 3.092-.227 4.831-.718 1.74-.492 3.591-1.249 5.502-2.309 1.911-1.059 3.883-2.421 5.864-4.124 1.981-1.703 3.97-3.746 5.917-6.168 1.947-2.422 3.852-5.223 5.662-8.439 1.811-3.217 3.527-6.85 5.098-10.937 1.572-4.088 2.997-8.629 4.226-13.662 1.229-5.034 2.261-10.559 3.045-16.615l1.361-10.497 1.361-10.496 1.36-10.497 1.361-10.497 1.361-10.496 1.361-10.497 1.361-10.497 1.361-10.497H301.959l-1.725 13.474-1.724 13.473-1.725 13.474-1.724 13.474-1.724 13.473-1.725 13.474-1.724 13.473-1.725 13.474c-.47 3.584-.823 6.884-1.057 9.915-.234 3.031-.35 5.793-.347 8.301.004 2.508.126 4.762.369 6.777.243 2.016.605 3.792 1.089 5.344.484 1.552 1.088 2.881 1.814 4 .727 1.119 1.575 2.029 2.545 2.746a10.067 10.067 0 0 0 3.281 1.581c1.216.343 2.556.507 4.021.507 1.671 0 3.478-.266 5.378-.85 1.901-.585 3.895-1.487 5.939-2.761s4.139-2.918 6.242-4.986c2.102-2.068 4.212-4.559 6.287-7.526 2.075-2.967 4.115-6.41 6.077-10.38 1.962-3.971 3.846-8.47 5.61-13.55 1.763-5.079 3.406-10.739 4.885-17.032 1.479-6.293 2.794-13.22 3.903-20.831a284.76 284.76 0 0 0 1.183-9.058c.334-2.935.609-5.794.825-8.604.216-2.811.374-5.574.476-8.316.102-2.742.147-5.464.138-8.193a211.489 211.489 0 0 0-.19-8.237 241.307 241.307 0 0 0-.507-8.448c-.22-2.869-.492-5.8-.814-8.823a407.696 407.696 0 0 0-1.111-9.365H407.359c.202 1.108.335 2.783.472 4.911.138 2.128.28 4.71.501 7.63.221 2.92.52 6.18.972 9.663a131.563 131.563 0 0 0 1.886 11.009c.83 3.818 1.886 7.746 3.242 11.669 1.356 3.924 3.012 7.843 5.042 11.643 2.029 3.8 4.433 7.481 7.283 10.929a58.396 58.396 0 0 0 9.967 9.529l-1.547 11.627-1.548 11.627-1.547 11.628-1.548 11.627a76.416 76.416 0 0 1-21.664-13.02 75.979 75.979 0 0 1-6.126-5.859c-2.255 8.937-4.964 17.147-8.073 24.672-3.109 7.525-6.617 14.365-10.47 20.561-3.852 6.197-8.05 11.751-12.538 16.704a103.67 103.67 0 0 1-14.279 13.099 100.498 100.498 0 0 1-15.691 9.747 105.147 105.147 0 0 1-16.774 6.649c-5.736 1.729-11.598 2.982-17.53 3.804a130.88 130.88 0 0 1-17.958 1.212c-4.077 0-7.926-.233-11.551-.683-3.625-.449-7.027-1.114-10.209-1.978a59.095 59.095 0 0 1-8.896-3.17 49.966 49.966 0 0 1-7.613-4.259 45.125 45.125 0 0 1-6.359-5.242 43.889 43.889 0 0 1-5.134-6.124 45.617 45.617 0 0 1-3.939-6.9 50.187 50.187 0 0 1-2.774-7.573c-3.126 4.696-6.489 8.78-9.982 12.331a78.335 78.335 0 0 1-10.76 9.133 78.562 78.562 0 0 1-10.888 6.415 81.15 81.15 0 0 1-10.367 4.174 82.48 82.48 0 0 1-9.194 2.414 78.352 78.352 0 0 1-7.372 1.131c-2.082.217-3.751.3-4.9.328-1.149.029-1.778.003-1.778.003-5.437 0-10.469-.524-15.099-1.534-4.63-1.01-8.858-2.507-12.687-4.453a45.336 45.336 0 0 1-10.297-7.15c-3.035-2.808-5.675-6.029-7.923-9.624-2.249-3.596-4.105-7.567-5.572-11.875-1.467-4.309-2.545-8.956-3.237-13.905-.693-4.948-1-10.197-.924-15.71.076-5.513.534-11.29 1.371-17.293l1.302-8.194 1.303-8.193 1.302-8.194 1.303-8.194 1.302-8.193 1.303-8.194 1.302-8.193 1.303-8.194c.088-1.489.003-2.777-.222-3.889-.224-1.112-.588-2.048-1.056-2.832a6.977 6.977 0 0 0-1.688-1.925 7.737 7.737 0 0 0-2.113-1.168 10.564 10.564 0 0 0-2.334-.561 14.693 14.693 0 0 0-2.349-.103c-.764.025-1.495.101-2.161.204-.666.102-1.266.231-1.766.361-1.086.3-2.122.608-3.122.929a68.047 68.047 0 0 0-5.688 2.098c-.914.385-1.821.79-2.736 1.219-.914.43-1.835.883-2.778 1.366-.942.482-20.478-38.363-20.478-38.363Z"/></g></svg>